<svg xmlns="http://www.w3.org/2000/svg"  viewBox="0 0 100 100" width="100px" height="100px"><path fill="#fefdef" d="M77,37v-4c0-10.493-8.507-19-19-19H42c-10.493,0-19,8.507-19,19v4v2c-1.105,0-2,0.895-2,2v9 c0,1.105,0.895,2,2,2c-2,1.5-6,5.5-6,10.5c0,4.746,3.121,8.232,4.429,9.485C21.156,72.944,21,73.953,21,75c0,6.075,6,11,13.5,11 c8.5,0,9.712-5,15.5-5h-0.01c5.788,0,7,5,15.5,5c7.5,0,13.5-4.925,13.5-11c0-1.047-0.156-2.056-0.429-3.015 c1.308-1.253,4.429-4.739,4.429-9.485c0-5-4-9-6-10.5c1.105,0,2-0.895,2-2v-9c0-1.105-0.895-2-2-2L77,37z"/><path fill="#1f212b" d="M65.5,53c-3.544,0-6.313-2.076-9.245-4.274c-0.542-0.406-1.095-0.821-1.666-1.233 c-2.702-1.953-6.478-1.952-9.178,0c-0.571,0.413-1.124,0.827-1.666,1.233C40.813,50.924,38.044,53,34.5,53 C29.656,53,24,49.464,24,39.5V39h52v0.5C76,49.464,70.344,53,65.5,53z M49.999,45c1.863,0,3.653,0.582,5.176,1.682 c0.576,0.416,1.134,0.834,1.68,1.244C59.771,50.112,62.289,52,65.5,52c4.303,0,9.313-3.154,9.495-12h-49.99 c0.182,8.846,5.192,12,9.495,12c3.211,0,5.729-1.888,8.646-4.075c0.546-0.41,1.104-0.828,1.68-1.244 C46.348,45.582,48.137,45,49.999,45z"/><path fill="#1f212b" d="M29.04,65.697L23.17,52H21.5v-1h1.67c0.4,0,0.761,0.238,0.919,0.606l5.871,13.697L29.04,65.697z"/><path fill="#1f212b" d="M70.95,65.697l-0.92-0.394l5.87-13.697C76.06,51.238,76.42,51,76.82,51h1.67v1h-1.67L70.95,65.697z"/><path fill="#1f212b" d="M65.49,87c-4.938,0-7.563-1.596-9.879-3.003c-1.761-1.071-3.282-1.995-5.616-1.997 c-2.334,0.001-3.855,0.926-5.616,1.997C42.063,85.404,39.438,87,34.5,87C26.505,87,20,81.617,20,75 c0-0.902,0.106-1.811,0.317-2.711C18.751,70.67,16,67.161,16,62.5c0-4.712,3.196-8.408,5.093-10.186C20.426,51.763,20,50.93,20,50 v-9c0-1.654,1.346-3,3-3v2c-0.552,0-1,0.449-1,1v9c0,0.551,0.448,1,1,1c0.431,0,0.813,0.275,0.948,0.684 c0.137,0.409-0.004,0.858-0.349,1.116c-0.573,0.43-5.6,4.354-5.6,9.7c0,4.344,2.882,7.575,4.121,8.763 c0.267,0.256,0.371,0.64,0.27,0.996C22.132,73.168,22,74.09,22,75c0,5.514,5.607,10,12.5,10c4.377,0,6.646-1.379,8.84-2.712 c1.847-1.123,3.757-2.284,6.646-2.288c0.002-0.001,0.005,0,0.009,0c0.002,0,0.005-0.001,0.009,0c2.89,0.004,4.8,1.165,6.646,2.288 C58.845,83.621,61.113,85,65.49,85c6.893,0,12.5-4.486,12.5-10c0-0.91-0.132-1.832-0.391-2.741 c-0.102-0.356,0.003-0.739,0.27-0.996c1.239-1.188,4.121-4.419,4.121-8.763c0-5.346-5.026-9.27-5.6-9.7 c-0.345-0.258-0.485-0.708-0.349-1.116C76.178,51.275,76.56,51,76.99,51c0.552,0,1.01-0.449,1.01-1v-9c0-0.551-0.458-1-1.01-1v-2 c1.654,0,3.01,1.346,3.01,3v9c0,0.93-0.436,1.763-1.103,2.314c1.896,1.778,5.093,5.474,5.093,10.186 c0,4.661-2.751,8.17-4.317,9.789c0.211,0.9,0.317,1.81,0.317,2.711C79.99,81.617,73.485,87,65.49,87z"/><path fill="#1f212b" d="M65,75c-1.726,0-3.219,0.453-4.043,0.764C60.53,71.582,56.985,66.006,50,66l0,0 c-0.002,0-0.003,0-0.005,0s-0.003,0-0.005,0l0,0c-6.978,0.005-10.52,5.581-10.947,9.763C38.221,75.452,36.73,75,35,75 c-5.131,0-9,2.364-9,5.5c0,3.084,4.173,5.5,9.5,5.5v-1c-4.607,0-8.5-2.061-8.5-4.5c0-2.523,3.514-4.5,8-4.5 c2.344,0,4.258,0.938,4.277,0.947c0.152,0.076,0.336,0.069,0.482-0.021s0.237-0.248,0.24-0.419 c0.056-3.833,3.272-9.504,9.995-9.507c6.73,0.003,9.949,5.674,10.005,9.507c0.003,0.172,0.093,0.33,0.24,0.419 c0.146,0.09,0.328,0.097,0.482,0.021C60.742,76.938,62.654,76,65,76c4.48,0,7.99,1.977,7.99,4.5c0,2.439-3.893,4.5-8.5,4.5v1 c5.327,0,9.5-2.416,9.5-5.5C73.99,77.364,70.125,75,65,75z"/><path fill="#1f212b" d="M67.972,23c-0.124,0-0.248-0.046-0.345-0.138c-1.494-1.422-3.32-2.515-5.283-3.159 c-0.262-0.086-0.405-0.369-0.318-0.631c0.085-0.263,0.368-0.406,0.631-0.319c2.103,0.69,4.06,1.861,5.66,3.386 c0.2,0.19,0.208,0.507,0.018,0.707C68.235,22.948,68.104,23,67.972,23z"/><path fill="#1f212b" d="M70.376,26c-0.169,0-0.334-0.086-0.428-0.241c-0.2-0.33-0.409-0.654-0.635-0.965 c-0.162-0.224-0.113-0.536,0.11-0.699c0.223-0.161,0.535-0.114,0.698,0.111c0.243,0.334,0.468,0.681,0.682,1.035 c0.143,0.236,0.067,0.544-0.169,0.687C70.554,25.977,70.465,26,70.376,26z"/><path fill="#1f212b" d="M29.624,26c-0.089,0-0.179-0.023-0.259-0.072c-0.236-0.144-0.312-0.451-0.169-0.687 C31.946,20.707,36.732,18,42,18h11.5c0.276,0,0.5,0.224,0.5,0.5S53.776,19,53.5,19H42c-4.915,0-9.382,2.527-11.948,6.759 C29.957,25.915,29.793,26,29.624,26z"/><path fill="#1f212b" d="M78,37h-2v-4c0-9.925-8.075-18-18-18H42c-9.925,0-18,8.075-18,18v4h-2v-4c0-11.028,8.972-20,20-20 h16c11.028,0,20,8.972,20,20V37z"/><g><path fill="#444445" d="M46.5,39.5c-1,3.792-9,8-13,8c-5,0-6-3.697-6-8H46.5z"/><path fill="#444445" d="M53.5,39.5c1,3.792,9,8,13,8c5,0,6-3.697,6-8H53.5z"/><path fill="#1f212b" d="M33.5,48c-5.826,0-6.5-4.851-6.5-8.5h1c0,5.257,1.645,7.5,5.5,7.5 c3.991,0,11.629-4.261,12.517-7.627l0.967,0.255C45.889,43.78,37.542,48,33.5,48z"/><path fill="#1f212b" d="M66.5,48c-4.042,0-12.389-4.22-13.483-8.373l0.967-0.255C54.871,42.739,62.509,47,66.5,47 c3.855,0,5.5-2.243,5.5-7.5h1C73,43.149,72.326,48,66.5,48z"/></g><g><rect width="55" height="3" x="22.5" y="36.5" fill="#b1bdd0"/><path fill="#1f212b" d="M78,40H22v-4h56V40z M23,39h54v-2H23V39z"/></g><g><path fill="#444445" d="M51.5,71c0-0.828-0.672-1.5-1.5-1.5s-1.5,0.672-1.5,1.5c0,0.67,0,10.329,0,11 c0,0.828,0.672,1.5,1.5,1.5s1.5-0.672,1.5-1.5C51.5,81.329,51.5,71.67,51.5,71z"/><path fill="#444445" d="M48.5,73c0-0.828-0.672-1.5-1.5-1.5s-1.5,0.672-1.5,1.5c0,0.627,0,8.372,0,9 c0,0.828,0.672,1.5,1.5,1.5s1.5-0.672,1.5-1.5C48.5,81.372,48.5,73.627,48.5,73z"/><path fill="#444445" d="M54.5,73.002c0-0.83-0.672-1.502-1.5-1.502s-1.5,0.673-1.5,1.502c0,0.724,0,8.272,0,8.996 c0,0.83,0.672,1.502,1.5,1.502s1.5-0.673,1.5-1.502C54.5,81.274,54.5,73.726,54.5,73.002z"/><path fill="#444445" d="M57.5,77c0-0.828-0.672-1.5-1.5-1.5s-1.5,0.672-1.5,1.5c0,0.723,0,2.777,0,3.5 c0,0.828,0.672,1.5,1.5,1.5s1.5-0.672,1.5-1.5C57.5,79.777,57.5,77.723,57.5,77z"/><path fill="#444445" d="M45.5,77c0-0.828-0.672-1.5-1.5-1.5s-1.5,0.672-1.5,1.5c0,0.723,0,2.777,0,3.5 c0,0.828,0.672,1.5,1.5,1.5s1.5-0.672,1.5-1.5C45.5,79.777,45.5,77.723,45.5,77z"/><path fill="#1f212b" d="M50,84c-1.103,0-2-0.897-2-2V71c0-1.103,0.897-2,2-2s2,0.897,2,2v11C52,83.103,51.103,84,50,84z M50,70c-0.552,0-1,0.449-1,1v11c0,0.551,0.448,1,1,1s1-0.449,1-1V71C51,70.449,50.552,70,50,70z"/><path fill="#1f212b" d="M47,84c-1.103,0-2-0.897-2-2v-9c0-1.103,0.897-2,2-2s2,0.897,2,2v9C49,83.103,48.103,84,47,84z M47,72c-0.552,0-1,0.449-1,1v9c0,0.551,0.448,1,1,1s1-0.449,1-1v-9C48,72.449,47.552,72,47,72z"/><path fill="#1f212b" d="M53,84c-1.103,0-2-0.898-2-2.002v-8.995C51,71.898,51.897,71,53,71s2,0.898,2,2.002v8.995 C55,83.102,54.103,84,53,84z M53,72c-0.552,0-1,0.45-1,1.002v8.995C52,82.55,52.448,83,53,83s1-0.45,1-1.002v-8.995 C54,72.45,53.552,72,53,72z"/><path fill="#1f212b" d="M56,82.5c-1.103,0-2-0.897-2-2V77c0-1.103,0.897-2,2-2s2,0.897,2,2v3.5 C58,81.603,57.103,82.5,56,82.5z M56,76c-0.552,0-1,0.449-1,1v3.5c0,0.551,0.448,1,1,1s1-0.449,1-1V77C57,76.449,56.552,76,56,76z"/><path fill="#1f212b" d="M44,82.5c-1.103,0-2-0.897-2-2V77c0-1.103,0.897-2,2-2s2,0.897,2,2v3.5 C46,81.603,45.103,82.5,44,82.5z M44,76c-0.552,0-1,0.449-1,1v3.5c0,0.551,0.448,1,1,1s1-0.449,1-1V77C45,76.449,44.552,76,44,76z"/></g><g><circle cx="34.5" cy="78.5" r="3" fill="#b1bdd0"/><circle cx="65.5" cy="78.5" r="3" fill="#b1bdd0"/><path fill="#1f212b" d="M34.5,82c-1.93,0-3.5-1.57-3.5-3.5s1.57-3.5,3.5-3.5s3.5,1.57,3.5,3.5S36.43,82,34.5,82z M34.5,76 c-1.379,0-2.5,1.122-2.5,2.5s1.121,2.5,2.5,2.5s2.5-1.122,2.5-2.5S35.879,76,34.5,76z"/><path fill="#1f212b" d="M65.5,82c-1.93,0-3.5-1.57-3.5-3.5s1.57-3.5,3.5-3.5s3.5,1.57,3.5,3.5S67.43,82,65.5,82z M65.5,76 c-1.379,0-2.5,1.122-2.5,2.5s1.121,2.5,2.5,2.5s2.5-1.122,2.5-2.5S66.879,76,65.5,76z"/></g><g><path fill="#b1bdd0" d="M49.981,57.504h0.01H50h0.01c-0.005,0-0.01,0.001-0.014,0.001 c6.001,0.007,10.004,3.999,20.495,7.996h0.01c-9-6-15-14-20.5-14s-11.5,8-20.5,14c10.491-3.997,14.494-7.989,20.495-7.996 C49.99,57.504,49.986,57.504,49.981,57.504z"/><path fill="#444445" d="M51.5,51.69v5.9c-0.49-0.06-0.99-0.09-1.5-0.09s-1.01,0.03-1.5,0.09v-5.9c0.5-0.12,1-0.19,1.5-0.19 S51,51.57,51.5,51.69z"/><path fill="#444445" d="M57.5,55.09v4.4c-1.04-0.48-2.02-0.89-3-1.21v-5.29C55.46,53.56,56.46,54.27,57.5,55.09z"/><path fill="#444445" d="M63.5,60.13v2.33c-1.08-0.52-2.07-1.02-3-1.49v-3.4C61.46,58.39,62.46,59.25,63.5,60.13z"/><path fill="#444445" d="M45.5,52.99v5.28c-0.97,0.32-1.96,0.73-3,1.22v-4.4C43.54,54.27,44.54,53.56,45.5,52.99z"/><path fill="#444445" d="M39.5,57.57v3.4c-0.93,0.47-1.92,0.97-3,1.49v-2.33C37.54,59.25,38.54,58.39,39.5,57.57z"/><path fill="#1f212b" d="M52,58.155l-0.561-0.069c-0.934-0.114-1.945-0.114-2.879,0L48,58.155v-6.859l0.383-0.092 c1.143-0.273,2.092-0.273,3.234,0L52,51.296V58.155z M50,57c0.336,0,0.671,0.013,1,0.038v-4.943c-0.697-0.127-1.303-0.127-2,0 v4.943C49.329,57.013,49.664,57,50,57z"/><path fill="#1f212b" d="M58,60.272l-0.71-0.328c-1.144-0.528-2.079-0.906-2.945-1.189L54,58.643v-6.531l0.755,0.448 c0.937,0.556,1.936,1.254,3.055,2.137l0.19,0.15V60.272z M55,57.921c0.615,0.213,1.268,0.473,2,0.795v-3.382 c-0.714-0.556-1.375-1.033-2-1.442V57.921z"/><path fill="#1f212b" d="M64,63.256l-0.717-0.345c-1.083-0.521-2.076-1.023-3.009-1.495L60,61.277v-4.792l1.612,1.378 c0.716,0.612,1.452,1.243,2.211,1.885L64,59.898V63.256z M61,60.662c0.635,0.321,1.299,0.655,2,0.999v-1.299 c-0.685-0.58-1.351-1.15-2-1.706V60.662z"/><path fill="#1f212b" d="M42,60.279v-5.432l0.19-0.15c1.119-0.883,2.118-1.582,3.055-2.137L46,52.112v6.52l-0.344,0.113 c-0.901,0.298-1.864,0.689-2.943,1.198L42,60.279z M43,55.333v3.377c0.706-0.314,1.367-0.578,2-0.799v-4.02 C44.375,54.301,43.714,54.777,43,55.333z"/><path fill="#1f212b" d="M36,63.256v-3.358l0.177-0.15c0.759-0.642,1.495-1.272,2.211-1.885L40,56.485v4.792l-0.274,0.139 c-0.933,0.472-1.926,0.973-3.009,1.495L36,63.256z M37,60.362v1.299c0.701-0.344,1.365-0.678,2-0.999v-2.006 C38.351,59.211,37.685,59.782,37,60.362z"/><path fill="#1f212b" d="M70.5,66c-0.096,0-0.192-0.027-0.277-0.084c-3.415-2.276-6.422-4.856-9.074-7.133 C56.731,54.994,53.243,52,50,52s-6.731,2.994-11.148,6.783c-2.652,2.276-5.659,4.856-9.074,7.133 c-0.229,0.151-0.539,0.091-0.693-0.139c-0.153-0.23-0.091-0.54,0.139-0.693c3.364-2.243,6.347-4.802,8.978-7.06 C42.773,54.1,46.387,51,50,51s7.227,3.1,11.8,7.024c2.631,2.258,5.613,4.816,8.978,7.06c0.229,0.153,0.292,0.463,0.139,0.693 C70.819,65.922,70.661,66,70.5,66z"/><path fill="#1f212b" d="M78.99,75h-1c0-6.109-5.15-8.07-7.626-9.013c-4.226-1.61-7.442-3.231-10.027-4.535 c-3.966-2-6.833-3.445-10.342-3.449c-3.509,0.004-6.376,1.449-10.342,3.449c-2.585,1.303-5.802,2.925-9.976,4.515 C27.15,66.93,22,68.891,22,75h-1c0-6.798,5.795-9.005,8.27-9.947c4.178-1.591,7.235-3.133,9.934-4.493 c4.081-2.058,7.034-3.546,10.771-3.556c0.004-0.001,0.009,0,0.015,0c0.002,0,0.004,0,0.004,0c0.008,0,0.012,0,0.018,0 c0.002,0,0.005,0,0.007,0c3.736,0.01,6.689,1.498,10.771,3.556c2.698,1.36,5.756,2.902,9.881,4.473 C73.195,65.995,78.99,68.202,78.99,75z"/></g></svg>